<svg xmlns="http://www.w3.org/2000/svg" width="512" height="512" viewBox="0 0 512 512"><text font-family="OpenSans-Bold,Open Sans" font-size="48" font-weight="700" transform="translate(98.441 -34.521)">CONSULTING</text><text fill="#231f20" font-family="OpenSans-Bold,Open Sans" font-size="48" font-weight="700" transform="translate(98.441 -34.521)">CONSULTING</text><text fill="#231f20" font-family="OpenSans-Bold,Open Sans" font-size="48" font-weight="700" transform="translate(98.441 -34.521)">CONSULTING</text><g data-name="Filled expand"><rect width="272" height="32" x="24" y="304" fill="#faa231"/><rect width="240" height="152" x="40" y="336" fill="#804913"/><rect width="160" height="48" x="80" y="376" fill="#faa231"/><path d="M240,432H80a8,8,0,0,1-8-8V376a8,8,0,0,1,8-8H240a8,8,0,0,1,8,8v48A8,8,0,0,1,240,432ZM88,416H232V384H88Z"/><path fill="#25b1fa" d="M48,304V205.86a20,20,0,0,1,12.978-18.727L112,168h48l51.022,19.133A20,20,0,0,1,224,205.86V304Z"/><polygon fill="#ffd4cf" points="168 168 136 200 104 168 120 136 152 136 168 168"/><path fill="#ffd4cf" d="M176,64H96v52.676a20,20,0,0,0,9.71,17.15l20,12a20,20,0,0,0,20.58,0l20-12a20,20,0,0,0,9.71-17.15Z"/><path fill="#faa231" d="M80,44V24h52a20,20,0,0,1,20,20V64H100A20,20,0,0,1,80,44Z"/><path fill="#804913" d="M184,64H152V32l16.851,4.213A20,20,0,0,1,184,55.616Z"/><polygon fill="#b3e9ff" points="104 168 136 200 88 208 104 168"/><polygon fill="#b3e9ff" points="168 168 136 200 184 208 168 168"/><g><path fill="#804913" d="M488,384H344l-8,40H458a30,30,0,0,0,30-30Z"/><path fill="#d76b4c" d="M464,336H360.456a40,40,0,0,0-39.142,31.76L296,488h40l32-104h76a20,20,0,0,0,20-20Z"/><path fill="#faa231" d="M464,336H368V243.555a60.015,60.015,0,0,1,4.291-22.283L384,192h60a20,20,0,0,1,20,20Z"/><path fill="#fa5d3f" d="M352 56h66a30 30 0 0 1 30 30v18a0 0 0 0 1 0 0H372a20 20 0 0 1-20-20V56A0 0 0 0 1 352 56zM336 488H256a32 32 0 0 1 32-32h56z"/><path fill="#ffd4cf" d="M368 104v24l-11.658 23.317A6 6 0 0 0 361.708 160H376v12a20 20 0 0 0 20 20h32a20 20 0 0 0 20-20V104zM358 296h26a0 0 0 0 1 0 0v40a0 0 0 0 1 0 0H328a0 0 0 0 1 0 0V326A30 30 0 0 1 358 296z"/><path d="M488,376H469.3a27.836,27.836,0,0,0,2.7-12V248H456v80H392V304h32a8,8,0,0,0,8-8V232H416v56H376V243.555a51.762,51.762,0,0,1,3.719-19.312l9.7-24.243H444a12.013,12.013,0,0,1,12,12v20h16V212a28.05,28.05,0,0,0-19.394-26.647A27.824,27.824,0,0,0,456,172V86a38.043,38.043,0,0,0-38-38H352a8,8,0,0,0-8,8V84a28.035,28.035,0,0,0,16,25.3v16.815l-10.813,21.627A14,14,0,0,0,361.708,168H368v4a27.9,27.9,0,0,0,7.684,19.249L364.863,218.3A67.707,67.707,0,0,0,360,243.555V288h-2a38.043,38.043,0,0,0-38,38v10a8,8,0,0,0,5.209,7.5,47.736,47.736,0,0,0-11.724,22.613L296.246,448H288a40.045,40.045,0,0,0-40,40,8,8,0,0,0,8,8h80a8,8,0,0,0,7.761-6.06l8-32c.009-.037.017-.075.026-.112l1.705.525L361.6,432H408v32H388a28.032,28.032,0,0,0-28,28v4h16v-4a12.013,12.013,0,0,1,12-12h56a12.013,12.013,0,0,1,12,12v4h16v-4a28.032,28.032,0,0,0-28-28H424V432h34a38.043,38.043,0,0,0,38-38V384A8,8,0,0,0,488,376ZM360,84V64h58a22.025,22.025,0,0,1,22,22V96H372A12.013,12.013,0,0,1,360,84Zm4.944,68,10.211-20.422A7.994,7.994,0,0,0,376,128V112h64v60a12.013,12.013,0,0,1-12,12H396a12.013,12.013,0,0,1-12-12V160a8,8,0,0,0-8-8ZM336,326a22.025,22.025,0,0,1,22-22h18v24H336Zm-6.246,154H265.371A24.042,24.042,0,0,1,288,464h45.754Zm10.183-32H312.6l16.546-78.592A32.146,32.146,0,0,1,360.456,344H456v20a12.013,12.013,0,0,1-12,12H368a8,8,0,0,0-7.646,5.647ZM480,394a22.025,22.025,0,0,1-22,22H366.524l7.384-24H480Z"/><path fill="#ffd4cf" d="M136,264h56a0,0,0,0,1,0,0v40a0,0,0,0,1,0,0H166a30,30,0,0,1-30-30V264A0,0,0,0,1,136,264Z" transform="rotate(-180 164 284)"/></g><g><path fill="#b3e9ff" d="M216,68v44l-24,32H300a20,20,0,0,0,20-20V68a20,20,0,0,0-20-20H236A20,20,0,0,0,216,68Z"/><path d="M300,152H192a8,8,0,0,1-6.4-12.8L208,109.333V68a28.032,28.032,0,0,1,28-28h64a28.032,28.032,0,0,1,28,28v56A28.032,28.032,0,0,1,300,152Zm-92-16h92a12.013,12.013,0,0,0,12-12V68a12.013,12.013,0,0,0-12-12H236a12.013,12.013,0,0,0-12,12v44a8,8,0,0,1-1.6,4.8Z"/><rect width="56" height="16" x="240" y="72"/><rect width="56" height="16" x="240" y="104"/></g><path d="M296,296H232V205.86a28.13,28.13,0,0,0-18.169-26.217l-38.3-14.364-.1-.25,0,0c-.028-.069-.057-.137-.086-.206l-.021-.048c-.028-.062-.056-.124-.085-.186l-.013-.028-.066-.134-10.225-20.45,5.476-3.286A28.141,28.141,0,0,0,184,116.676V72a8,8,0,0,0,8-8V55.616a27.959,27.959,0,0,0-21.209-27.164L153.94,24.239a7.951,7.951,0,0,0-2.352-.228A27.907,27.907,0,0,0,132,16H80a8,8,0,0,0-8,8V44A28.035,28.035,0,0,0,88,69.3v47.38a28.141,28.141,0,0,0,13.594,24.01l5.476,3.286-10.225,20.45-.066.134-.013.028c-.029.062-.057.124-.085.186l-.021.048c-.029.069-.058.137-.086.206l0,0-.1.25-38.3,14.364A28.131,28.131,0,0,0,40,205.86V256H56V205.86a12.056,12.056,0,0,1,7.786-11.236l24.645-9.242-7.859,19.647a8,8,0,0,0,8.743,10.862L136,208.11l46.685,7.781a8,8,0,0,0,8.743-10.862l-7.859-19.647,24.645,9.242A12.056,12.056,0,0,1,216,205.86V296H200v-2a38.043,38.043,0,0,0-38-38H88v16h40v24H56V272H40v24H24a8,8,0,0,0-8,8v32a8,8,0,0,0,8,8h8V488a8,8,0,0,0,8,8H232V480H48V344H272v88h16V344h8a8,8,0,0,0,8-8V304A8,8,0,0,0,296,296ZM160,42.247l6.91,1.727A11.982,11.982,0,0,1,176,55.616V56H160ZM100,56A12.013,12.013,0,0,1,88,44V32h44a12.013,12.013,0,0,1,12,12V56Zm4,60.676V72h64v44.676a12.059,12.059,0,0,1-5.826,10.29l-20,12a11.98,11.98,0,0,1-12.348,0l-20-12A12.059,12.059,0,0,1,104,116.676Zm-3.292,81.095,6.214-15.535,12.429,12.429Zm13.026-31.351,7.1-14.192.764.458a27.948,27.948,0,0,0,28.812,0l.764-.458,7.1,14.192L136,188.686Zm38.915,28.245,12.429-12.429,6.214,15.535ZM144,272h18a22.025,22.025,0,0,1,22,22v2H144Zm144,56H32V312H288Z"/></g></svg>