<svg xmlns="http://www.w3.org/2000/svg" viewBox="0 0 64 64"><g data-name="data-server-network-storage"><rect width="18" height="11" x="43" y="50" fill="#78b9eb"/><polygon fill="#78b9eb" points="19 48 19 61 3 61 3 43 14 43 14 48 19 48"/><path fill="#78b9eb" d="M39 34v6c0 1.1-3.13 2-7 2s-7-.9-7-2V34c0 1.1 3.13 2 7 2S39 35.1 39 34zM39 22v6c0 1.1-3.13 2-7 2s-7-.9-7-2V22c0 1.1 3.13 2 7 2S39 23.1 39 22zM57.65 10a5.893 5.893 0 0 0-.24-.58l2.37-2.37L56.95 4.22 54.58 6.59A5.893 5.893 0 0 0 54 6.35V3H50V6.35a5.893 5.893 0 0 0-.58.24L47.05 4.22 44.22 7.05l2.37 2.37a5.893 5.893 0 0 0-.24.58H43v4h3.35a5.893 5.893 0 0 0 .24.58l-2.37 2.37 2.83 2.83 2.37-2.37a5.893 5.893 0 0 0 .58.24V21h4V17.65a5.893 5.893 0 0 0 .58-.24l2.37 2.37 2.83-2.83-2.37-2.37a5.893 5.893 0 0 0 .24-.58H61V10zM52 15a3 3 0 1 1 3-3A3 3 0 0 1 52 15zM22 11a3 3 0 0 1-3 3H6A3 3 0 0 1 6 8a2.907 2.907 0 0 1 1.22.27A4.078 4.078 0 0 1 7 7a3.991 3.991 0 0 1 7.86-.99c.05 0 .09-.01.14-.01a2.974 2.974 0 0 1 2.88 2.22A2.994 2.994 0 0 1 22 11z"/><path fill="#006df0" d="M62,14V10a1,1,0,0,0-1-1H59.243l1.242-1.243a1,1,0,0,0,0-1.414L57.657,3.515a1,1,0,0,0-1.414,0L55,4.758V3a1,1,0,0,0-1-1H50a1,1,0,0,0-1,1V4.758L47.757,3.515a1.029,1.029,0,0,0-1.414,0L43.515,6.343a1,1,0,0,0,0,1.414L44.757,9H43a1,1,0,0,0-1,1v1H32a1,1,0,0,0-1,1v7.025c-2.2.1-7,.589-7,2.975v3H13V15h6a4,4,0,0,0,0-8,3.871,3.871,0,0,0-.528.036,4.008,4.008,0,0,0-2.883-1.992A4.992,4.992,0,0,0,6,7a4,4,0,0,0,0,8h5V26a1,1,0,0,0,1,1H24V40c0,2.386,4.8,2.875,7,2.975V53H20V48a1,1,0,0,0-.293-.707l-5-5A1,1,0,0,0,14,42H3a1,1,0,0,0-1,1V61a1,1,0,0,0,1,1H19a1,1,0,0,0,1-1V55H32a1,1,0,0,0,1-1V42.975c2.2-.1,7-.589,7-2.975V33h9V45H43a1,1,0,0,0-1,1V61a1,1,0,0,0,1,1H61a1,1,0,0,0,1-1V44a1,1,0,0,0-1-1H54a1,1,0,0,0-.707.293L51.586,45H51V32a1,1,0,0,0-1-1H40V22c0-2.386-4.8-2.875-7-2.975V13h9v1a1,1,0,0,0,1,1h1.757l-1.242,1.243a1,1,0,0,0,0,1.414l2.828,2.828a1,1,0,0,0,1.414,0L49,19.242V21a1,1,0,0,0,1,1h4a1,1,0,0,0,1-1V19.242l1.243,1.243a1.029,1.029,0,0,0,1.414,0l2.828-2.828a1,1,0,0,0,0-1.414L59.243,15H61A1,1,0,0,0,62,14ZM4,11A2,2,0,0,1,6,9a1.968,1.968,0,0,1,.814.179A1,1,0,0,0,8.172,7.948,2.986,2.986,0,1,1,13.9,6.261a.989.989,0,0,0,1.011.752C14.96,7.01,15.013,7,15,7a2,2,0,0,1,1.92,1.481,1,1,0,0,0,1.338.666A2,2,0,1,1,19,13H6A2,2,0,0,1,4,11ZM15,45.414,16.586,47H15ZM4,60V44h9v4a1,1,0,0,0,1,1h4V60Zm56,0H44V51H60v9ZM52,47a1,1,0,0,0,.707-.293L54.414,45H60v4H44V47ZM38,27.859C37.618,28.267,35.521,29,32,29s-5.618-.733-6-1.141V24.108a20.625,20.625,0,0,0,12,0ZM26,30.108a20.625,20.625,0,0,0,12,0v3.764c-.42.41-2.522,1.128-6,1.128s-5.58-.718-6-1.128ZM32,41c-3.478,0-5.58-.718-6-1.128V36.108a20.625,20.625,0,0,0,12,0v3.764C37.58,40.282,35.478,41,32,41Zm0-18a13.032,13.032,0,0,1-5.829-1A13.032,13.032,0,0,1,32,21a13.032,13.032,0,0,1,5.829,1A13.032,13.032,0,0,1,32,23ZM60,13H57.651a1,1,0,0,0-.943.667,5.044,5.044,0,0,1-.2.485,1,1,0,0,0,.2,1.137l1.661,1.661L56.95,18.364,55.289,16.7a1,1,0,0,0-1.136-.2,5.062,5.062,0,0,1-.486.2,1,1,0,0,0-.667.943V20H51V17.651a1,1,0,0,0-.667-.943,5.062,5.062,0,0,1-.486-.2,1,1,0,0,0-1.136.2L47.05,18.364,45.636,16.95,47.3,15.289a1,1,0,0,0,.2-1.137,5.044,5.044,0,0,1-.2-.485A1,1,0,0,0,46.349,13H44V11h2.349a1,1,0,0,0,.943-.667,5.044,5.044,0,0,1,.2-.485,1,1,0,0,0-.2-1.137L45.636,7.05,47.05,5.636,48.711,7.3a1,1,0,0,0,1.136.2,5.062,5.062,0,0,1,.486-.2A1,1,0,0,0,51,6.349V4h2V6.349a1,1,0,0,0,.667.943,5.062,5.062,0,0,1,.486.2,1,1,0,0,0,1.136-.2L56.95,5.636,58.364,7.05,56.7,8.711a1,1,0,0,0-.2,1.137,5.044,5.044,0,0,1,.2.485,1,1,0,0,0,.943.667H60Z"/><path fill="#006df0" d="M52,8a4,4,0,1,0,4,4A4,4,0,0,0,52,8Zm0,6a2,2,0,1,1,2-2A2,2,0,0,1,52,14Z"/><rect width="4" height="2" x="46" y="53" fill="#006df0"/><rect width="5" height="2" x="6" y="46" fill="#006df0"/><rect width="10" height="2" x="6" y="50" fill="#006df0"/><rect width="2" height="2" x="6" y="54" fill="#006df0"/><rect width="6" height="2" x="10" y="54" fill="#006df0"/></g></svg>