<svg xmlns="http://www.w3.org/2000/svg" viewBox="0 0 64 64"><defs><linearGradient id="a" x1="2" x2="62" y1="31.984" y2="31.984" gradientUnits="userSpaceOnUse"><stop offset="0" stop-color="#0fdcdd"/><stop offset="1" stop-color="#46a1e8"/></linearGradient></defs><path fill="url(#a)" d="M41,10a.9994.9994,0,0,1-1,1H16a1,1,0,0,1,0-2H40A.9994.9994,0,0,1,41,10ZM62,8V38a3.0033,3.0033,0,0,1-3,3H54.798c.0862-.6588.1476-1.3251.1767-2H59a1.0007,1.0007,0,0,0,1-1V15H4V39H9.0253c.0291.6749.09,1.3412.1767,2H3a1,1,0,0,1-1-1V8A3.0033,3.0033,0,0,1,5,5H59A3.0033,3.0033,0,0,1,62,8ZM60,8a1.0007,1.0007,0,0,0-1-1H5A1.001,1.001,0,0,0,4,8v5H60Zm-3.5.5A1.5,1.5,0,1,0,58,10,1.5,1.5,0,0,0,56.5,8.5ZM52.5377,33.6069A21.0107,21.0107,0,0,1,18.7838,54.3582,21.0218,21.0218,0,0,1,32,17,21.22,21.22,0,0,1,52.5377,33.6069ZM37.516,19.8168A19.0238,19.0238,0,0,0,16.22,48.6279,19.0116,19.0116,0,1,0,37.516,19.8168ZM49.5,38c0,.8765.218,3-1.13,3H43.82c-1.5082,0-.82-2.1223-.82-3a11.0076,11.0076,0,0,0-9.2949-10.8541L35.55,40.27c.31,2.3256-2.2733,4.0884-4.3648,3.5963a3.6314,3.6314,0,0,1-2.645-4.274l1.7539-12.4457A11.0076,11.0076,0,0,0,21,38c0,.8766.6918,3-.82,3H15.63c-1.3439,0-1.13-2.1243-1.13-3,0-12.5209,11.0833-17.5,17.5-17.5C38.7917,20.5,49.5,25.9583,49.5,38ZM22.8543,28.7734l-1.7672-1.7668A15.45,15.45,0,0,0,16.5,38c0,.3223.0122.6533.0371,1h2.5063C19.0142,38.6592,19,38.3271,19,38A12.9577,12.9577,0,0,1,22.8543,28.7734ZM33.4775,39.8555,32,29.3721,30.4424,40.459A1.5609,1.5609,0,0,0,32,41.96C33.2414,41.96,33.6119,40.8681,33.4775,39.8555ZM41.39,25.6964a15.3893,15.3893,0,0,0-18.782.0023l1.7834,1.7832a12.9094,12.9094,0,0,1,6.2279-2.4064,1.4345,1.4345,0,0,1,2.7635,0A12.9106,12.9106,0,0,1,39.6061,27.48ZM47.5,38a15.45,15.45,0,0,0-4.59-10.996l-1.7671,1.7671A12.9573,12.9573,0,0,1,45,38c0,.3262-.0146.6582-.0439,1h2.5068C47.4883,38.6533,47.5,38.3223,47.5,38Zm5-29.5A1.5,1.5,0,1,0,54,10,1.5,1.5,0,0,0,52.5,8.5Z" data-name="28 Page speed"/></svg>