<svg xmlns="http://www.w3.org/2000/svg" viewBox="0 0 64 64"><g data-name="Responsive website"><path fill="#f5f7ff" d="M53 27v6H43a2 2 0 0 0-2 2v18h-9a2 2 0 0 1-2-2V27Z"/><path fill="#0074ff" d="M47 9v6H7V9a2 2 0 0 1 2-2h36a2 2 0 0 1 2 2Z"/><path fill="#f5f7ff" d="M47 15v6H32a2 2 0 0 0-2 2v16H9c-1.1 0-2 1.77-2-2V15Z"/><path fill="#ccd3eb" d="M32 18a5 5 0 0 0-5 5v9a4 4 0 0 1-4 4H12a4 4 0 0 1-4-4H7v7h23V23a2 2 0 0 1 2-2h15v-3Z"/><path fill="#0074ff" d="M53 23v4H30v-4a2 2 0 0 1 2-2h19a2 2 0 0 1 2 2Z"/><path fill="#ccd3eb" d="M43 30a5 5 0 0 0-5 5v11a3.9 3.9 0 0 1-.47 1.87 3.49 3.49 0 0 1-6.06 0A3.9 3.9 0 0 1 31 46h-1v7h11V35a2 2 0 0 1 2-2h10v-3Z"/><rect width="14" height="23" x="42" y="34" fill="#ccd3eb" rx="1" ry="1"/><path fill="#f5f7ff" d="M56 35v16a3 3 0 0 1-3 3h-7a4 4 0 0 1-4-4V35a1 1 0 0 1 1-1h12a1 1 0 0 1 1 1Z"/><path fill="#033c59" d="M45 6H34a1 1 0 0 0-1 1 1 1 0 0 0 1 1h11a1 1 0 0 1 1 1v11H32a3 3 0 0 0-3 3v8a1 1 0 0 0 2 0v-8a1 1 0 0 1 1-1h15a1 1 0 0 0 1-1V9a3 3 0 0 0-3-3ZM30 6H9a3 3 0 0 0-3 3v9a1 1 0 0 0 2 0V9a1 1 0 0 1 1-1h21a1 1 0 0 0 1-1 1 1 0 0 0-1-1ZM7 21a1 1 0 1 0 1 1 1 1 0 0 0-1-1Zm23 13a1 1 0 0 0-1 1v3H9a1 1 0 0 1-1-1V26a1 1 0 0 0-2 0v11a3 3 0 0 0 3 3h21a1 1 0 0 0 1-1v-4a1 1 0 0 0-1-1Z"/><path fill="#033c59" d="M51 20H32a3 3 0 0 0-3 3v8a1 1 0 0 0 2 0v-8a1 1 0 0 1 1-1h19a1 1 0 0 1 1 1v9h-9a3 3 0 0 0-3 3v17h-8a1 1 0 0 1-1-1V35a1 1 0 0 0-2 0v16a3 3 0 0 0 3 3h9a1 1 0 0 0 1-1V35a1 1 0 0 1 1-1h10a1 1 0 0 0 1-1V23a3 3 0 0 0-3-3Z"/><path fill="#033c59" d="M55 32H43a3 3 0 0 0-3 3v20a3 3 0 0 0 3 3h4a1 1 0 0 0 1-1 1 1 0 0 0-1-1h-4a1 1 0 0 1-1-1V35a1 1 0 0 1 1-1h12a1 1 0 0 1 1 1v20a1 1 0 0 1-1 1h-4a1 1 0 0 0-1 1 1 1 0 0 0 1 1h4a3 3 0 0 0 3-3V35a3 3 0 0 0-3-3Z"/><circle cx="12" cy="11" r="1" fill="#f5f7ff"/><circle cx="17" cy="11" r="1" fill="#f5f7ff"/><circle cx="22" cy="11" r="1" fill="#f5f7ff"/><circle cx="34" cy="24" r="1" fill="#f5f7ff"/><circle cx="38" cy="24" r="1" fill="#f5f7ff"/><circle cx="42" cy="24" r="1" fill="#f5f7ff"/><path fill="#033c59" d="M47 16H8a1 1 0 0 1 0-2h39a1 1 0 0 1 0 2zm6 12H30a1 1 0 0 1 0-2h23a1 1 0 0 1 0 2z"/></g></svg>